<svg width="60" height="60" viewBox="0 0 60 60" fill="none" xmlns="http://www.w3.org/2000/svg">
<path d="M30 5.625C16.5352 5.625 5.625 16.5352 5.625 30C5.625 43.4648 16.5352 54.375 30 54.375C43.4648 54.375 54.375 43.4648 54.375 30C54.375 16.5352 43.4648 5.625 30 5.625ZM30 52.3477C23.1328 52.3477 16.9805 49.2305 12.8789 44.3438C14.9648 43.4414 20.168 41.5664 23.4609 40.6055C23.7188 40.5234 23.7656 40.5117 23.7656 39.3516C23.7656 38.1094 23.625 37.2305 23.3203 36.5859C22.9102 35.707 22.418 34.2188 22.2422 32.8828C21.75 32.3086 21.082 31.1836 20.6484 29.0273C20.2734 27.1289 20.4492 26.4375 20.6953 25.793C20.7188 25.7227 20.7539 25.6523 20.7656 25.582C20.8594 25.1484 20.7305 22.8281 20.4023 21.0352C20.1797 19.8047 20.4609 17.1914 22.1602 15.0234C23.2266 13.6523 25.2773 11.9766 28.957 11.7422H31.0078C34.7461 11.9766 36.7969 13.6523 37.8633 15.0234C39.5625 17.1914 39.8438 19.8047 39.6094 21.0352C39.2812 22.8281 39.1523 25.1367 39.2461 25.582C39.2578 25.6523 39.293 25.7227 39.3164 25.7812C39.5625 26.4258 39.75 27.1172 39.3633 29.0156C38.9297 31.1719 38.2617 32.2969 37.7695 32.8711C37.5937 34.207 37.1016 35.6836 36.6914 36.5742C36.3047 37.3828 35.918 38.3438 35.918 39.3047C35.918 40.4648 35.9648 40.4766 36.2344 40.5586C39.3633 41.4844 44.7539 43.3477 47.1328 44.3203C43.0312 49.2188 36.8789 52.3477 30 52.3477Z" fill="black"/>
</svg>
