<svg width="100" height="100" viewBox="0 0 100 100" fill="none" xmlns="http://www.w3.org/2000/svg">
<g clip-path="url(#clip0_26_471)">
<path d="M100 0H0V100H100V0Z" fill="white"/>
<path d="M23.0691 35.733C25.6702 48.975 42.2818 60.5618 50.2625 64.6999C63.9774 56.4236 71.5443 47.0636 73.6134 43.4182C81.4167 26.3928 74.106 17.6041 69.4752 15.338C60.2531 9.66285 52.4301 15.338 49.6714 18.8849C43.9962 12.2639 36.2717 12.7763 33.1188 13.8601C21.2956 18.5893 21.4926 30.4126 23.0691 35.733Z" fill="#C71A73" stroke="#C71A73"/>
<path d="M32.3541 45.0921L16.7 46.7927L35.7571 47.4729L40.5214 38.9701L39.1602 68.9L55.1546 32.848L53.4531 47.4729L83.4 46.7927L58.5577 43.7316L62.301 8.69995L43.9245 47.4729L45.626 20.604L32.3541 45.0921Z" fill="white" stroke="white"/>
<path d="M24.2599 79.5284C23.8812 79.5284 23.6919 79.4243 23.6919 79.216V69.844C23.6919 69.6357 23.8812 69.5316 24.2599 69.5316H24.3735C24.7522 69.5316 24.9415 69.6357 24.9415 69.844V73.8626H30.0819V69.844C30.0819 69.6357 30.2712 69.5316 30.6499 69.5316H30.7635C31.1422 69.5316 31.3315 69.6357 31.3315 69.844V79.216C31.3315 79.4243 31.1422 79.5284 30.7635 79.5284H30.6499C30.2712 79.5284 30.0819 79.4243 30.0819 79.216V74.9418H24.9415V79.216C24.9415 79.4243 24.7522 79.5284 24.3735 79.5284H24.2599ZM40.5956 79.5284C40.1885 79.5284 39.985 79.4479 39.985 79.287C39.985 79.2586 39.9897 79.2302 39.9992 79.2018C40.0086 79.1639 40.0181 79.1261 40.0276 79.0882L43.393 69.7588C43.4403 69.6073 43.6296 69.5316 43.961 69.5316H44.3728C44.7041 69.5316 44.8934 69.6073 44.9408 69.7588L48.3062 79.1024C48.3346 79.1687 48.3488 79.2302 48.3488 79.287C48.3488 79.4479 48.1452 79.5284 47.7382 79.5284H47.6246C47.4826 79.5284 47.3595 79.5142 47.2554 79.4858C47.1512 79.4479 47.085 79.3864 47.0566 79.3012L46.2188 76.9724H42.044L41.2346 79.3012C41.2062 79.3864 41.1399 79.4479 41.0358 79.4858C40.9316 79.5142 40.8086 79.5284 40.6666 79.5284H40.5956ZM42.4416 75.8932H45.8354L44.3444 71.6616C44.3065 71.5291 44.2734 71.3918 44.245 71.2498C44.2166 71.1078 44.1929 70.9705 44.174 70.838H44.1456C44.1172 70.9705 44.084 71.1078 44.0462 71.2498C44.0178 71.3918 43.9799 71.5291 43.9326 71.6616L42.4416 75.8932ZM58.917 79.5284C58.5383 79.5284 58.349 79.4243 58.349 79.216V70.6392H55.6226C55.4333 70.6392 55.3386 70.4972 55.3386 70.2132V69.986C55.3386 69.702 55.4333 69.56 55.6226 69.56H62.2824C62.4717 69.56 62.5664 69.702 62.5664 69.986V70.2132C62.5664 70.4972 62.4717 70.6392 62.2824 70.6392H59.5986V79.216C59.5986 79.4243 59.4093 79.5284 59.0306 79.5284H58.917ZM71.7655 79.5C71.4815 79.5 71.3395 79.358 71.3395 79.074V69.986C71.3395 69.702 71.4815 69.56 71.7655 69.56H76.7213C76.9107 69.56 77.0053 69.702 77.0053 69.986V70.2132C77.0053 70.4972 76.9107 70.6392 76.7213 70.6392H72.5891V73.8768H76.2953C76.4847 73.8768 76.5793 74.0188 76.5793 74.3028V74.53C76.5793 74.814 76.4847 74.956 76.2953 74.956H72.5891V78.4208H76.7355C76.9249 78.4208 77.0195 78.5628 77.0195 78.8468V79.074C77.0195 79.358 76.9249 79.5 76.7355 79.5H71.7655ZM73.3133 68.8216C73.0672 68.8216 72.9441 68.7601 72.9441 68.637C72.9441 68.5991 72.9536 68.5613 72.9725 68.5234C73.0009 68.4761 73.0435 68.424 73.1003 68.3672L73.8671 67.5578C73.9902 67.4253 74.1275 67.3401 74.2789 67.3022C74.4304 67.2549 74.6529 67.2312 74.9463 67.2312C75.1641 67.2312 75.3439 67.2549 75.4859 67.3022C75.6279 67.3401 75.6989 67.4016 75.6989 67.4868C75.6989 67.5625 75.6658 67.6383 75.5995 67.714C75.5333 67.7803 75.3771 67.8939 75.1309 68.0548L74.3641 68.5234C74.1653 68.6465 73.9997 68.7269 73.8671 68.7648C73.7346 68.8027 73.55 68.8216 73.3133 68.8216Z" fill="#C71A73"/>
<path d="M23.1854 87.8129C23.1214 87.8129 23.0702 87.8086 23.0318 87.8001C22.9977 87.7873 22.9742 87.7702 22.9614 87.7489C22.9486 87.7276 22.9422 87.702 22.9422 87.6721L23.3838 83.4481C23.3923 83.3542 23.4819 83.3073 23.6526 83.3073H23.7038C23.7678 83.3073 23.8169 83.3137 23.851 83.3265C23.8894 83.335 23.915 83.35 23.9278 83.3713C23.9449 83.3926 23.9513 83.4182 23.947 83.4481L23.755 85.2593H26.0718L26.2638 83.4481C26.2723 83.3542 26.3619 83.3073 26.5326 83.3073H26.5838C26.6478 83.3073 26.6969 83.3137 26.731 83.3265C26.7694 83.335 26.795 83.35 26.8078 83.3713C26.8249 83.3926 26.8313 83.4182 26.827 83.4481L26.3854 87.6721C26.3769 87.766 26.2873 87.8129 26.1166 87.8129H26.0654C26.0014 87.8129 25.9502 87.8086 25.9118 87.8001C25.8777 87.7873 25.8542 87.7702 25.8414 87.7489C25.8286 87.7276 25.8222 87.702 25.8222 87.6721L26.0206 85.7457H23.7038L23.5054 87.6721C23.4969 87.766 23.4073 87.8129 23.2366 87.8129H23.1854ZM29.1848 84.4145C29.3981 84.4145 29.5752 84.4444 29.716 84.5041C29.861 84.5596 29.9762 84.6321 30.0616 84.7217C30.1469 84.807 30.2066 84.8988 30.2408 84.9969C30.2792 85.095 30.2984 85.1846 30.2984 85.2657C30.2984 85.4876 30.2493 85.6753 30.1512 85.8289C30.0573 85.9782 29.9272 86.0977 29.7608 86.1873C29.5944 86.2769 29.4088 86.3409 29.204 86.3793C28.9992 86.4177 28.788 86.4369 28.5704 86.4369C28.4168 86.4369 28.2866 86.4305 28.18 86.4177C28.0733 86.4006 27.9837 86.3836 27.9112 86.3665L28.02 86.1425V86.4561C28.02 86.6908 28.0584 86.8764 28.1352 87.0129C28.212 87.1452 28.3208 87.239 28.4616 87.2945C28.6024 87.35 28.7666 87.3777 28.9544 87.3777C29.1464 87.3777 29.3106 87.3521 29.4472 87.3009C29.5837 87.2454 29.6925 87.1921 29.7736 87.1409C29.8589 87.0897 29.9165 87.0641 29.9464 87.0641C29.9592 87.0641 29.9698 87.0684 29.9784 87.0769C29.9869 87.0812 29.9912 87.1025 29.9912 87.1409C29.9912 87.1494 29.989 87.1836 29.9848 87.2433C29.9805 87.2988 29.972 87.3606 29.9592 87.4289C29.9464 87.5057 29.8973 87.5697 29.812 87.6209C29.7309 87.6721 29.6328 87.7148 29.5176 87.7489C29.4024 87.7788 29.2893 87.8001 29.1784 87.8129C29.0674 87.83 28.9778 87.8385 28.9096 87.8385C28.7517 87.8385 28.5874 87.8236 28.4168 87.7937C28.2504 87.7596 28.0946 87.6977 27.9496 87.6081C27.8045 87.5142 27.6872 87.3798 27.5976 87.2049C27.508 87.03 27.4632 86.7996 27.4632 86.5137C27.4632 86.1297 27.5208 85.7798 27.636 85.4641C27.7554 85.1441 27.941 84.8902 28.1928 84.7025C28.4488 84.5105 28.7794 84.4145 29.1848 84.4145ZM29.1656 84.8753C28.8626 84.8753 28.613 84.9734 28.4168 85.1697C28.2205 85.3617 28.0989 85.6305 28.052 85.9761H28.5064C28.5448 85.9761 28.6109 85.974 28.7048 85.9697C28.7986 85.9654 28.9032 85.9548 29.0184 85.9377C29.1378 85.9164 29.2509 85.8822 29.3576 85.8353C29.4685 85.7884 29.5602 85.7244 29.6328 85.6433C29.7053 85.558 29.7416 85.4492 29.7416 85.3169C29.7416 85.1846 29.6882 85.078 29.5816 84.9969C29.4792 84.9158 29.3405 84.8753 29.1656 84.8753ZM31.7811 87.8385C31.6787 87.8385 31.5656 87.8193 31.4419 87.7809C31.3181 87.7382 31.2008 87.6678 31.0899 87.5697C30.9789 87.4673 30.8872 87.3265 30.8147 87.1473C30.7464 86.9638 30.7123 86.7334 30.7123 86.4561C30.7123 86.0593 30.7763 85.7073 30.9043 85.4001C31.0323 85.0929 31.2136 84.8518 31.4483 84.6769C31.6872 84.502 31.9645 84.4145 32.2803 84.4145C32.4808 84.4145 32.6493 84.455 32.7859 84.5361C32.9224 84.6172 33.0248 84.6918 33.0931 84.7601C33.1144 84.6961 33.1357 84.6406 33.1571 84.5937C33.1784 84.5468 33.2061 84.5105 33.2403 84.4849C33.2744 84.455 33.3213 84.4401 33.3811 84.4401H33.4195C33.4835 84.4401 33.5261 84.455 33.5475 84.4849C33.5731 84.5148 33.5816 84.566 33.5731 84.6385L33.3235 87.1153C33.3149 87.2049 33.3235 87.2732 33.3491 87.3201C33.3789 87.367 33.4259 87.3905 33.4899 87.3905C33.5496 87.3905 33.5987 87.3841 33.6371 87.3713C33.6797 87.3542 33.7096 87.3457 33.7267 87.3457C33.7523 87.3457 33.7651 87.3628 33.7651 87.3969C33.7651 87.4012 33.7629 87.4225 33.7587 87.4609C33.7587 87.4993 33.7523 87.5548 33.7395 87.6273C33.7224 87.7084 33.6691 87.7638 33.5795 87.7937C33.4899 87.8236 33.4152 87.8385 33.3555 87.8385C33.1464 87.8385 32.9971 87.7788 32.9075 87.6593C32.8179 87.5398 32.7752 87.3692 32.7795 87.1473C32.6472 87.3948 32.4936 87.5718 32.3187 87.6785C32.148 87.7852 31.9688 87.8385 31.7811 87.8385ZM31.9027 87.3713C31.9965 87.3713 32.1011 87.3393 32.2163 87.2753C32.3315 87.2113 32.4445 87.1025 32.5555 86.9489C32.6707 86.791 32.7709 86.5713 32.8563 86.2897L32.9523 85.4513C32.9608 85.3916 32.9672 85.3361 32.9715 85.2849C32.98 85.2337 32.9885 85.1825 32.9971 85.1313C32.9373 85.0844 32.8456 85.031 32.7219 84.9713C32.6024 84.9116 32.4467 84.8817 32.2547 84.8817C32.0328 84.8817 31.8493 84.9564 31.7043 85.1057C31.5592 85.255 31.4504 85.447 31.3779 85.6817C31.3053 85.9164 31.2691 86.1617 31.2691 86.4177C31.2691 86.6609 31.2968 86.8529 31.3523 86.9937C31.412 87.1302 31.4888 87.2284 31.5827 87.2881C31.6808 87.3436 31.7875 87.3713 31.9027 87.3713ZM34.5838 87.8129C34.4984 87.8129 34.4344 87.8001 34.3918 87.7745C34.3534 87.7489 34.3363 87.7169 34.3406 87.6785L34.5838 85.4129C34.5923 85.3404 34.5966 85.2764 34.5966 85.2209C34.6008 85.1612 34.603 85.1078 34.603 85.0609C34.603 84.95 34.5987 84.8646 34.5902 84.8049C34.5816 84.7452 34.5774 84.7046 34.5774 84.6833C34.5774 84.6236 34.6136 84.5809 34.6862 84.5553C34.7587 84.5254 34.8654 84.5105 35.0062 84.5105C35.0787 84.5105 35.1214 84.5596 35.1342 84.6577C35.1512 84.7516 35.1555 84.8497 35.147 84.9521C35.2451 84.79 35.3667 84.6598 35.5118 84.5617C35.6611 84.4636 35.819 84.4145 35.9854 84.4145C36.028 84.4145 36.0728 84.4209 36.1198 84.4337C36.171 84.4465 36.2136 84.47 36.2478 84.5041C36.2862 84.5382 36.3054 84.5894 36.3054 84.6577C36.3054 84.7089 36.299 84.7622 36.2862 84.8177C36.2734 84.8689 36.2542 84.9137 36.2286 84.9521C36.2072 84.9862 36.1795 85.0033 36.1454 85.0033C36.1155 85.0033 36.0728 84.9926 36.0174 84.9713C35.9619 84.95 35.8766 84.9393 35.7614 84.9393C35.6718 84.9393 35.5651 84.9713 35.4414 85.0353C35.3219 85.095 35.2131 85.206 35.115 85.3681L34.8845 87.6657C34.8718 87.7638 34.78 87.8129 34.6094 87.8129H34.5838ZM37.4858 87.8385C37.4047 87.8385 37.3194 87.8278 37.2298 87.8065C37.1402 87.7894 37.057 87.751 36.9802 87.6913C36.9077 87.6316 36.8522 87.542 36.8138 87.4225C36.7754 87.303 36.7669 87.143 36.7882 86.9425L36.9994 84.9137H36.673C36.5877 84.9137 36.5514 84.8561 36.5642 84.7409L36.577 84.6449C36.5941 84.5169 36.6453 84.4529 36.7306 84.4529H37.057L37.1914 83.7809C37.1999 83.7297 37.2213 83.6934 37.2554 83.6721C37.2938 83.6508 37.3535 83.6401 37.4346 83.6401H37.4538C37.5391 83.6401 37.5946 83.6529 37.6202 83.6785C37.6501 83.6998 37.6607 83.7361 37.6522 83.7873L37.5818 84.4529H38.1066C38.1621 84.4529 38.1983 84.4678 38.2154 84.4977C38.2325 84.5276 38.2367 84.5766 38.2282 84.6449L38.2218 84.7217C38.209 84.8497 38.1599 84.9137 38.0746 84.9137H37.5306L37.3194 86.9681C37.3023 87.1388 37.3215 87.2518 37.377 87.3073C37.4367 87.3628 37.5157 87.3905 37.6138 87.3905C37.7077 87.3905 37.7759 87.3841 37.8186 87.3713C37.8613 87.3542 37.8933 87.3457 37.9146 87.3457C37.9402 87.3457 37.953 87.3628 37.953 87.3969C37.953 87.4012 37.9509 87.4225 37.9466 87.4609C37.9466 87.4993 37.9402 87.5548 37.9274 87.6273C37.9103 87.7084 37.8549 87.7638 37.761 87.7937C37.6714 87.8236 37.5797 87.8385 37.4858 87.8385ZM41.5244 87.8129C41.4604 87.8129 41.4092 87.8086 41.3708 87.8001C41.3367 87.7873 41.3132 87.7702 41.3004 87.7489C41.2876 87.7233 41.2833 87.6934 41.2876 87.6593L41.6844 83.8065H40.4556C40.4129 83.8065 40.3809 83.7916 40.3596 83.7617C40.3383 83.7318 40.3297 83.687 40.334 83.6273L40.3404 83.5313C40.3489 83.4545 40.3681 83.4012 40.398 83.3713C40.4279 83.3372 40.4641 83.3201 40.5068 83.3201H43.502C43.5489 83.3201 43.5809 83.335 43.598 83.3649C43.6193 83.3948 43.6279 83.4396 43.6236 83.4993L43.6172 83.5953C43.6129 83.6721 43.5959 83.7276 43.566 83.7617C43.5361 83.7916 43.4977 83.8065 43.4508 83.8065H42.2476L41.8444 87.6721C41.8359 87.766 41.7463 87.8129 41.5756 87.8129H41.5244ZM45.0285 84.4145C45.2418 84.4145 45.4189 84.4444 45.5597 84.5041C45.7048 84.5596 45.82 84.6321 45.9053 84.7217C45.9906 84.807 46.0504 84.8988 46.0845 84.9969C46.1229 85.095 46.1421 85.1846 46.1421 85.2657C46.1421 85.4876 46.093 85.6753 45.9949 85.8289C45.901 85.9782 45.7709 86.0977 45.6045 86.1873C45.4381 86.2769 45.2525 86.3409 45.0477 86.3793C44.8429 86.4177 44.6317 86.4369 44.4141 86.4369C44.2605 86.4369 44.1304 86.4305 44.0237 86.4177C43.917 86.4006 43.8274 86.3836 43.7549 86.3665L43.8637 86.1425V86.4561C43.8637 86.6908 43.9021 86.8764 43.9789 87.0129C44.0557 87.1452 44.1645 87.239 44.3053 87.2945C44.4461 87.35 44.6104 87.3777 44.7981 87.3777C44.9901 87.3777 45.1544 87.3521 45.2909 87.3009C45.4274 87.2454 45.5362 87.1921 45.6173 87.1409C45.7026 87.0897 45.7602 87.0641 45.7901 87.0641C45.8029 87.0641 45.8136 87.0684 45.8221 87.0769C45.8306 87.0812 45.8349 87.1025 45.8349 87.1409C45.8349 87.1494 45.8328 87.1836 45.8285 87.2433C45.8242 87.2988 45.8157 87.3606 45.8029 87.4289C45.7901 87.5057 45.741 87.5697 45.6557 87.6209C45.5746 87.6721 45.4765 87.7148 45.3613 87.7489C45.2461 87.7788 45.133 87.8001 45.0221 87.8129C44.9112 87.83 44.8216 87.8385 44.7533 87.8385C44.5954 87.8385 44.4312 87.8236 44.2605 87.7937C44.0941 87.7596 43.9384 87.6977 43.7933 87.6081C43.6482 87.5142 43.5309 87.3798 43.4413 87.2049C43.3517 87.03 43.3069 86.7996 43.3069 86.5137C43.3069 86.1297 43.3645 85.7798 43.4797 85.4641C43.5992 85.1441 43.7848 84.8902 44.0365 84.7025C44.2925 84.5105 44.6232 84.4145 45.0285 84.4145ZM45.0093 84.8753C44.7064 84.8753 44.4568 84.9734 44.2605 85.1697C44.0642 85.3617 43.9426 85.6305 43.8957 85.9761H44.3501C44.3885 85.9761 44.4546 85.974 44.5485 85.9697C44.6424 85.9654 44.7469 85.9548 44.8621 85.9377C44.9816 85.9164 45.0946 85.8822 45.2013 85.8353C45.3122 85.7884 45.404 85.7244 45.4765 85.6433C45.549 85.558 45.5853 85.4492 45.5853 85.3169C45.5853 85.1846 45.532 85.078 45.4253 84.9969C45.3229 84.9158 45.1842 84.8753 45.0093 84.8753ZM47.5249 87.8385C47.303 87.8385 47.1473 87.7724 47.0577 87.6401C46.9724 87.5036 46.9425 87.2902 46.9681 87.0001L47.3649 83.1281C47.3734 83.0769 47.399 83.0406 47.4417 83.0193C47.4886 82.998 47.5526 82.9873 47.6337 82.9873H47.6593C47.7489 82.9873 47.8129 83.0001 47.8513 83.0257C47.894 83.047 47.911 83.0812 47.9025 83.1281L47.4929 87.1153C47.4844 87.2049 47.4929 87.2732 47.5185 87.3201C47.5484 87.367 47.5953 87.3905 47.6593 87.3905C47.719 87.3905 47.7681 87.3841 47.8065 87.3713C47.8492 87.3542 47.879 87.3457 47.8961 87.3457C47.9217 87.3457 47.9345 87.3628 47.9345 87.3969C47.9345 87.4012 47.9324 87.4225 47.9281 87.4609C47.9281 87.4993 47.9217 87.5548 47.9089 87.6273C47.8918 87.7084 47.8385 87.7638 47.7489 87.7937C47.6593 87.8236 47.5846 87.8385 47.5249 87.8385ZM50.2535 84.4145C50.4668 84.4145 50.6439 84.4444 50.7847 84.5041C50.9298 84.5596 51.045 84.6321 51.1303 84.7217C51.2156 84.807 51.2754 84.8988 51.3095 84.9969C51.3479 85.095 51.3671 85.1846 51.3671 85.2657C51.3671 85.4876 51.318 85.6753 51.2199 85.8289C51.126 85.9782 50.9959 86.0977 50.8295 86.1873C50.6631 86.2769 50.4775 86.3409 50.2727 86.3793C50.0679 86.4177 49.8567 86.4369 49.6391 86.4369C49.4855 86.4369 49.3554 86.4305 49.2487 86.4177C49.142 86.4006 49.0524 86.3836 48.9799 86.3665L49.0887 86.1425V86.4561C49.0887 86.6908 49.1271 86.8764 49.2039 87.0129C49.2807 87.1452 49.3895 87.239 49.5303 87.2945C49.6711 87.35 49.8354 87.3777 50.0231 87.3777C50.2151 87.3777 50.3794 87.3521 50.5159 87.3009C50.6524 87.2454 50.7612 87.1921 50.8423 87.1409C50.9276 87.0897 50.9852 87.0641 51.0151 87.0641C51.0279 87.0641 51.0386 87.0684 51.0471 87.0769C51.0556 87.0812 51.0599 87.1025 51.0599 87.1409C51.0599 87.1494 51.0578 87.1836 51.0535 87.2433C51.0492 87.2988 51.0407 87.3606 51.0279 87.4289C51.0151 87.5057 50.966 87.5697 50.8807 87.6209C50.7996 87.6721 50.7015 87.7148 50.5863 87.7489C50.4711 87.7788 50.358 87.8001 50.2471 87.8129C50.1362 87.83 50.0466 87.8385 49.9783 87.8385C49.8204 87.8385 49.6562 87.8236 49.4855 87.7937C49.3191 87.7596 49.1634 87.6977 49.0183 87.6081C48.8732 87.5142 48.7559 87.3798 48.6663 87.2049C48.5767 87.03 48.5319 86.7996 48.5319 86.5137C48.5319 86.1297 48.5895 85.7798 48.7047 85.4641C48.8242 85.1441 49.0098 84.8902 49.2615 84.7025C49.5175 84.5105 49.8482 84.4145 50.2535 84.4145ZM50.2343 84.8753C49.9314 84.8753 49.6818 84.9734 49.4855 85.1697C49.2892 85.3617 49.1676 85.6305 49.1207 85.9761H49.5751C49.6135 85.9761 49.6796 85.974 49.7735 85.9697C49.8674 85.9654 49.9719 85.9548 50.0871 85.9377C50.2066 85.9164 50.3196 85.8822 50.4263 85.8353C50.5372 85.7884 50.629 85.7244 50.7015 85.6433C50.774 85.558 50.8103 85.4492 50.8103 85.3169C50.8103 85.1846 50.757 85.078 50.6503 84.9969C50.5479 84.9158 50.4092 84.8753 50.2343 84.8753ZM56.4171 87.8385C56.208 87.8385 56.0523 87.7788 55.9499 87.6593C55.8518 87.5356 55.8176 87.3436 55.8475 87.0833L56.0139 85.5025C56.0352 85.2849 56.0011 85.127 55.9115 85.0289C55.8219 84.9308 55.696 84.8817 55.5339 84.8817C55.4358 84.8817 55.3227 84.918 55.1947 84.9905C55.0667 85.0588 54.9408 85.1825 54.8171 85.3617C54.6934 85.5409 54.5846 85.799 54.4907 86.1361L54.6059 85.6049L54.3883 87.6721C54.3798 87.766 54.2902 87.8129 54.1195 87.8129H54.0939C54.0086 87.8129 53.9446 87.8001 53.9019 87.7745C53.8635 87.7446 53.8464 87.7084 53.8507 87.6657L54.0811 85.4385C54.1024 85.2422 54.0683 85.1014 53.9787 85.0161C53.8891 84.9265 53.7632 84.8817 53.6011 84.8817C53.5158 84.8817 53.4155 84.9094 53.3003 84.9649C53.1894 85.0161 53.0763 85.11 52.9611 85.2465C52.8502 85.383 52.7478 85.5793 52.6539 85.8353L52.4619 87.6721C52.4491 87.766 52.3595 87.8129 52.1931 87.8129H52.1675C52.0822 87.8129 52.0182 87.8001 51.9755 87.7745C51.9371 87.7446 51.92 87.7084 51.9243 87.6657C51.9456 87.4822 51.9691 87.2796 51.9947 87.0577C52.0203 86.8316 52.0438 86.6033 52.0651 86.3729C52.0907 86.1425 52.1142 85.9249 52.1355 85.7201C52.1568 85.5153 52.1739 85.3382 52.1867 85.1889C52.1995 85.0396 52.2059 84.935 52.2059 84.8753C52.2059 84.7985 52.2038 84.7473 52.1995 84.7217C52.1995 84.6961 52.1995 84.6748 52.1995 84.6577C52.1995 84.6108 52.2251 84.5766 52.2763 84.5553C52.3318 84.534 52.3894 84.5212 52.4491 84.5169C52.5088 84.5126 52.5451 84.5105 52.5579 84.5105C52.6006 84.5105 52.6326 84.534 52.6539 84.5809C52.6795 84.6278 52.6966 84.6854 52.7051 84.7537C52.7179 84.8177 52.7243 84.8796 52.7243 84.9393C52.7243 84.9948 52.7222 85.0652 52.7179 85.1505C52.7136 85.2358 52.7072 85.3148 52.6987 85.3873L52.6155 85.2529C52.7136 85.0566 52.8246 84.8966 52.9483 84.7729C53.0763 84.6492 53.2128 84.5596 53.3579 84.5041C53.503 84.4444 53.648 84.4145 53.7931 84.4145C54.0704 84.4145 54.2731 84.4806 54.4011 84.6129C54.5334 84.7409 54.6102 84.9052 54.6315 85.1057C54.7766 84.8668 54.9451 84.6918 55.1371 84.5809C55.3334 84.47 55.5296 84.4145 55.7259 84.4145C56.0374 84.4145 56.2614 84.4998 56.3979 84.6705C56.5344 84.8369 56.5878 85.0716 56.5579 85.3745L56.3851 87.1153C56.3766 87.2049 56.3851 87.2732 56.4107 87.3201C56.4406 87.367 56.4875 87.3905 56.5515 87.3905C56.6112 87.3905 56.6603 87.3841 56.6987 87.3713C56.7414 87.3542 56.7712 87.3457 56.7883 87.3457C56.8139 87.3457 56.8267 87.3628 56.8267 87.3969C56.8267 87.4012 56.8246 87.4225 56.8203 87.4609C56.8203 87.4993 56.8139 87.5548 56.8011 87.6273C56.784 87.7084 56.7307 87.7638 56.6411 87.7937C56.5515 87.8236 56.4768 87.8385 56.4171 87.8385ZM59.1285 84.4145C59.3418 84.4145 59.5189 84.4444 59.6597 84.5041C59.8048 84.5596 59.92 84.6321 60.0053 84.7217C60.0906 84.807 60.1504 84.8988 60.1845 84.9969C60.2229 85.095 60.2421 85.1846 60.2421 85.2657C60.2421 85.4876 60.193 85.6753 60.0949 85.8289C60.001 85.9782 59.8709 86.0977 59.7045 86.1873C59.5381 86.2769 59.3525 86.3409 59.1477 86.3793C58.9429 86.4177 58.7317 86.4369 58.5141 86.4369C58.3605 86.4369 58.2304 86.4305 58.1237 86.4177C58.017 86.4006 57.9274 86.3836 57.8549 86.3665L57.9637 86.1425V86.4561C57.9637 86.6908 58.0021 86.8764 58.0789 87.0129C58.1557 87.1452 58.2645 87.239 58.4053 87.2945C58.5461 87.35 58.7104 87.3777 58.8981 87.3777C59.0901 87.3777 59.2544 87.3521 59.3909 87.3009C59.5274 87.2454 59.6362 87.1921 59.7173 87.1409C59.8026 87.0897 59.8602 87.0641 59.8901 87.0641C59.9029 87.0641 59.9136 87.0684 59.9221 87.0769C59.9306 87.0812 59.9349 87.1025 59.9349 87.1409C59.9349 87.1494 59.9328 87.1836 59.9285 87.2433C59.9242 87.2988 59.9157 87.3606 59.9029 87.4289C59.8901 87.5057 59.841 87.5697 59.7557 87.6209C59.6746 87.6721 59.5765 87.7148 59.4613 87.7489C59.3461 87.7788 59.233 87.8001 59.1221 87.8129C59.0112 87.83 58.9216 87.8385 58.8533 87.8385C58.6954 87.8385 58.5312 87.8236 58.3605 87.7937C58.1941 87.7596 58.0384 87.6977 57.8933 87.6081C57.7482 87.5142 57.6309 87.3798 57.5413 87.2049C57.4517 87.03 57.4069 86.7996 57.4069 86.5137C57.4069 86.1297 57.4645 85.7798 57.5797 85.4641C57.6992 85.1441 57.8848 84.8902 58.1365 84.7025C58.3925 84.5105 58.7232 84.4145 59.1285 84.4145ZM59.1093 84.8753C58.8064 84.8753 58.5568 84.9734 58.3605 85.1697C58.1642 85.3617 58.0426 85.6305 57.9957 85.9761H58.4501C58.4885 85.9761 58.5546 85.974 58.6485 85.9697C58.7424 85.9654 58.8469 85.9548 58.9621 85.9377C59.0816 85.9164 59.1946 85.8822 59.3013 85.8353C59.4122 85.7884 59.504 85.7244 59.5765 85.6433C59.649 85.558 59.6853 85.4492 59.6853 85.3169C59.6853 85.1846 59.632 85.078 59.5253 84.9969C59.4229 84.9158 59.2842 84.8753 59.1093 84.8753ZM61.8656 87.8385C61.7504 87.8385 61.6224 87.8193 61.4816 87.7809C61.3451 87.7382 61.2128 87.6678 61.0848 87.5697C60.9611 87.4673 60.8587 87.3265 60.7776 87.1473C60.7008 86.9638 60.6624 86.7334 60.6624 86.4561C60.6624 86.0593 60.7285 85.7073 60.8608 85.4001C60.9931 85.0929 61.1787 84.8518 61.4176 84.6769C61.6608 84.502 61.9445 84.4145 62.2688 84.4145C62.4949 84.4145 62.6763 84.4465 62.8128 84.5105C62.9493 84.5702 63.0581 84.6342 63.1392 84.7025L63.312 83.1281C63.3248 83.0342 63.4144 82.9873 63.5808 82.9873H63.6064C63.7045 82.9873 63.7707 83.0001 63.8048 83.0257C63.8432 83.0513 63.8581 83.094 63.8496 83.1537L63.44 87.1153C63.4315 87.2049 63.44 87.2732 63.4656 87.3201C63.4955 87.367 63.5424 87.3905 63.6064 87.3905C63.6661 87.3905 63.7152 87.3841 63.7536 87.3713C63.7963 87.3542 63.8261 87.3457 63.8432 87.3457C63.8688 87.3457 63.8816 87.3628 63.8816 87.3969C63.8816 87.4012 63.8795 87.4225 63.8752 87.4609C63.8752 87.4993 63.8688 87.5548 63.856 87.6273C63.8389 87.7084 63.7856 87.7638 63.696 87.7937C63.6064 87.8236 63.5317 87.8385 63.472 87.8385C63.2629 87.8385 63.1136 87.7809 63.024 87.6657C62.9387 87.5505 62.896 87.3777 62.896 87.1473C62.7637 87.3948 62.6059 87.5718 62.4224 87.6785C62.2432 87.7852 62.0576 87.8385 61.8656 87.8385ZM61.9872 87.3713C62.0853 87.3713 62.192 87.3414 62.3072 87.2817C62.4267 87.2177 62.544 87.1089 62.6592 86.9553C62.7787 86.7974 62.8832 86.5798 62.9728 86.3025L63.0944 85.1249C63.0304 85.0737 62.9387 85.0204 62.8192 84.9649C62.6997 84.9094 62.5419 84.8817 62.3456 84.8817C62.1237 84.8817 61.9403 84.9265 61.7952 85.0161C61.6501 85.1014 61.5349 85.2166 61.4496 85.3617C61.3685 85.5068 61.3109 85.671 61.2768 85.8545C61.2427 86.038 61.2256 86.2257 61.2256 86.4177C61.2256 86.7804 61.2917 87.03 61.424 87.1665C61.5605 87.303 61.7483 87.3713 61.9872 87.3713ZM64.9404 87.8385C64.7868 87.8385 64.6566 87.7852 64.55 87.6785C64.4433 87.5676 64.4049 87.3756 64.4348 87.1025L64.6844 84.5809C64.6972 84.487 64.7868 84.4401 64.9532 84.4401H64.9788C65.0684 84.4401 65.1324 84.4529 65.1708 84.4785C65.2092 84.4998 65.2262 84.534 65.222 84.5809L64.9724 87.1153C64.9638 87.2134 64.9702 87.2838 64.9916 87.3265C65.0172 87.3692 65.062 87.3905 65.126 87.3905C65.1857 87.3905 65.2348 87.3841 65.2732 87.3713C65.3158 87.3542 65.3457 87.3457 65.3628 87.3457C65.3884 87.3457 65.4012 87.3628 65.4012 87.3969C65.4012 87.4012 65.399 87.4225 65.3948 87.4609C65.3948 87.4993 65.3884 87.5548 65.3756 87.6273C65.3585 87.7084 65.303 87.7638 65.2092 87.7937C65.1153 87.8236 65.0257 87.8385 64.9404 87.8385ZM65.0044 83.9921C64.902 83.9921 64.8294 83.9793 64.7868 83.9537C64.7484 83.9281 64.7313 83.894 64.7356 83.8513L64.774 83.4673C64.7782 83.4246 64.8038 83.3905 64.8508 83.3649C64.8977 83.3393 64.9724 83.3265 65.0748 83.3265C65.1772 83.3265 65.2476 83.3393 65.286 83.3649C65.3244 83.3862 65.3414 83.4204 65.3372 83.4673L65.2988 83.8513C65.2902 83.9452 65.1921 83.9921 65.0044 83.9921ZM67.4277 87.8385C66.9626 87.8385 66.6106 87.7318 66.3717 87.5185C66.1328 87.3052 66.0133 86.9596 66.0133 86.4817C66.0133 85.8289 66.1626 85.3212 66.4613 84.9585C66.7642 84.5958 67.1866 84.4145 67.7285 84.4145C67.8821 84.4145 68.0272 84.4273 68.1637 84.4529C68.3002 84.4785 68.4112 84.5148 68.4965 84.5617C68.5818 84.6044 68.6245 84.6513 68.6245 84.7025C68.6245 84.7366 68.6096 84.7814 68.5797 84.8369C68.5498 84.8924 68.5157 84.9436 68.4773 84.9905C68.4432 85.0332 68.4133 85.0545 68.3877 85.0545C68.3834 85.0545 68.3728 85.0524 68.3557 85.0481C68.3429 85.0396 68.3301 85.0332 68.3173 85.0289C68.2661 85.0033 68.185 84.9713 68.0741 84.9329C67.9674 84.8945 67.833 84.8753 67.6709 84.8753C67.321 84.8753 67.0522 85.0097 66.8645 85.2785C66.681 85.5473 66.5893 85.9356 66.5893 86.4433C66.5893 86.7676 66.6576 87.0044 66.7941 87.1537C66.9306 87.303 67.1546 87.3777 67.4661 87.3777C67.6154 87.3777 67.7498 87.3585 67.8693 87.3201C67.993 87.2774 68.0848 87.2412 68.1445 87.2113C68.1658 87.2028 68.1829 87.1964 68.1957 87.1921C68.2085 87.1878 68.217 87.1857 68.2213 87.1857C68.2512 87.1857 68.2789 87.2049 68.3045 87.2433C68.3301 87.2817 68.3514 87.3265 68.3685 87.3777C68.3898 87.4246 68.4005 87.4652 68.4005 87.4993C68.4005 87.5377 68.3728 87.5782 68.3173 87.6209C68.2618 87.6593 68.1872 87.6956 68.0933 87.7297C68.0037 87.7638 67.9013 87.7894 67.7861 87.8065C67.6709 87.8278 67.5514 87.8385 67.4277 87.8385ZM69.7404 87.8385C69.5868 87.8385 69.4566 87.7852 69.35 87.6785C69.2433 87.5676 69.2049 87.3756 69.2348 87.1025L69.4844 84.5809C69.4972 84.487 69.5868 84.4401 69.7532 84.4401H69.7788C69.8684 84.4401 69.9324 84.4529 69.9708 84.4785C70.0092 84.4998 70.0262 84.534 70.022 84.5809L69.7724 87.1153C69.7638 87.2134 69.7702 87.2838 69.7916 87.3265C69.8172 87.3692 69.862 87.3905 69.926 87.3905C69.9857 87.3905 70.0348 87.3841 70.0732 87.3713C70.1158 87.3542 70.1457 87.3457 70.1628 87.3457C70.1884 87.3457 70.2012 87.3628 70.2012 87.3969C70.2012 87.4012 70.199 87.4225 70.1948 87.4609C70.1948 87.4993 70.1884 87.5548 70.1756 87.6273C70.1585 87.7084 70.103 87.7638 70.0092 87.7937C69.9153 87.8236 69.8257 87.8385 69.7404 87.8385ZM69.8044 83.9921C69.702 83.9921 69.6294 83.9793 69.5868 83.9537C69.5484 83.9281 69.5313 83.894 69.5356 83.8513L69.574 83.4673C69.5782 83.4246 69.6038 83.3905 69.6508 83.3649C69.6977 83.3393 69.7724 83.3265 69.8748 83.3265C69.9772 83.3265 70.0476 83.3393 70.086 83.3649C70.1244 83.3862 70.1414 83.4204 70.1372 83.4673L70.0988 83.8513C70.0902 83.9452 69.9921 83.9921 69.8044 83.9921ZM73.4565 87.8385C73.273 87.8385 73.1258 87.783 73.0149 87.6721C72.904 87.5612 72.8634 87.3649 72.8933 87.0833L73.0533 85.4385C73.0746 85.2422 73.0405 85.1014 72.9509 85.0161C72.8613 84.9265 72.7354 84.8817 72.5733 84.8817C72.4794 84.8817 72.3706 84.9116 72.2469 84.9713C72.1232 85.0268 71.9994 85.1292 71.8757 85.2785C71.7562 85.4236 71.6496 85.6348 71.5557 85.9121L71.3701 87.6721C71.3616 87.766 71.272 87.8129 71.1013 87.8129H71.0757C70.9904 87.8129 70.9285 87.8001 70.8901 87.7745C70.8517 87.7446 70.8346 87.7084 70.8389 87.6657L71.0437 85.7457C71.065 85.5665 71.0821 85.3937 71.0949 85.2273C71.1077 85.0609 71.1141 84.9436 71.1141 84.8753C71.1141 84.7985 71.112 84.7473 71.1077 84.7217C71.1077 84.6961 71.1077 84.6748 71.1077 84.6577C71.1077 84.6108 71.1333 84.5766 71.1845 84.5553C71.24 84.534 71.2976 84.5212 71.3573 84.5169C71.417 84.5126 71.4533 84.5105 71.4661 84.5105C71.5301 84.5105 71.5728 84.5553 71.5941 84.6449C71.6197 84.7302 71.6325 84.8284 71.6325 84.9393C71.6325 85.0246 71.6282 85.11 71.6197 85.1953C71.6112 85.2764 71.6005 85.3404 71.5877 85.3873L71.5045 85.2465C71.6282 85.0417 71.7584 84.8796 71.8949 84.7601C72.0357 84.6364 72.1786 84.5489 72.3237 84.4977C72.473 84.4422 72.6202 84.4145 72.7653 84.4145C73.0768 84.4145 73.3008 84.4998 73.4373 84.6705C73.5738 84.8369 73.6272 85.0716 73.5973 85.3745L73.4245 87.1153C73.416 87.2049 73.4245 87.2732 73.4501 87.3201C73.48 87.367 73.5269 87.3905 73.5909 87.3905C73.6506 87.3905 73.6997 87.3841 73.7381 87.3713C73.7808 87.3542 73.8106 87.3457 73.8277 87.3457C73.8533 87.3457 73.8661 87.3628 73.8661 87.3969C73.8661 87.4012 73.864 87.4225 73.8597 87.4609C73.8597 87.4993 73.8533 87.5548 73.8405 87.6273C73.8234 87.7084 73.7701 87.7638 73.6805 87.7937C73.5909 87.8236 73.5162 87.8385 73.4565 87.8385ZM76.091 84.4145C76.3043 84.4145 76.4814 84.4444 76.6222 84.5041C76.7673 84.5596 76.8825 84.6321 76.9678 84.7217C77.0531 84.807 77.1129 84.8988 77.147 84.9969C77.1854 85.095 77.2046 85.1846 77.2046 85.2657C77.2046 85.4876 77.1555 85.6753 77.0574 85.8289C76.9635 85.9782 76.8334 86.0977 76.667 86.1873C76.5006 86.2769 76.315 86.3409 76.1102 86.3793C75.9054 86.4177 75.6942 86.4369 75.4766 86.4369C75.323 86.4369 75.1929 86.4305 75.0862 86.4177C74.9795 86.4006 74.8899 86.3836 74.8174 86.3665L74.9262 86.1425V86.4561C74.9262 86.6908 74.9646 86.8764 75.0414 87.0129C75.1182 87.1452 75.227 87.239 75.3678 87.2945C75.5086 87.35 75.6729 87.3777 75.8606 87.3777C76.0526 87.3777 76.2169 87.3521 76.3534 87.3009C76.4899 87.2454 76.5987 87.1921 76.6798 87.1409C76.7651 87.0897 76.8227 87.0641 76.8526 87.0641C76.8654 87.0641 76.8761 87.0684 76.8846 87.0769C76.8931 87.0812 76.8974 87.1025 76.8974 87.1409C76.8974 87.1494 76.8953 87.1836 76.891 87.2433C76.8867 87.2988 76.8782 87.3606 76.8654 87.4289C76.8526 87.5057 76.8035 87.5697 76.7182 87.6209C76.6371 87.6721 76.539 87.7148 76.4238 87.7489C76.3086 87.7788 76.1955 87.8001 76.0846 87.8129C75.9737 87.83 75.8841 87.8385 75.8158 87.8385C75.6579 87.8385 75.4937 87.8236 75.323 87.7937C75.1566 87.7596 75.0009 87.6977 74.8558 87.6081C74.7107 87.5142 74.5934 87.3798 74.5038 87.2049C74.4142 87.03 74.3694 86.7996 74.3694 86.5137C74.3694 86.1297 74.427 85.7798 74.5422 85.4641C74.6617 85.1441 74.8473 84.8902 75.099 84.7025C75.355 84.5105 75.6857 84.4145 76.091 84.4145ZM76.0718 84.8753C75.7689 84.8753 75.5193 84.9734 75.323 85.1697C75.1267 85.3617 75.0051 85.6305 74.9582 85.9761H75.4126C75.451 85.9761 75.5171 85.974 75.611 85.9697C75.7049 85.9654 75.8094 85.9548 75.9246 85.9377C76.0441 85.9164 76.1571 85.8822 76.2638 85.8353C76.3747 85.7884 76.4665 85.7244 76.539 85.6433C76.6115 85.558 76.6478 85.4492 76.6478 85.3169C76.6478 85.1846 76.5945 85.078 76.4878 84.9969C76.3854 84.9158 76.2467 84.8753 76.0718 84.8753Z" fill="black"/>
</g>
<defs>
<clipPath id="clip0_26_471">
<rect width="100" height="100" fill="white"/>
</clipPath>
</defs>
</svg>
